# xmcd CD database file
#
# Track frame offsets:
#	150
#	17925
#	53815
#	78707
#	95597
#	112755
#	127910
#	155580
#	170935
#	188145
#	207557
#
# Disc length: 3001 seconds
#
# Revision: 0
# Processed by: cddbd v1.4PL0 Copyright (c) Steve Scherf et al.
# Submitted via: CDex 1.50Beta7
#
DISCID=970bb70b
DTITLE=White Hot and Blue - One Nite Stand - Live II
DYEAR=1995
DGENRE=Blues
TTITLE0=If You Love Me (Say I)
TTITLE1=Manish Boy
TTITLE2=The Thrill Is Gone
TTITLE3=TightTrope
TTITLE4=The 7th Son
TTITLE5=One's Too Many
TTITLE6=Who's Been Talkin'
TTITLE7=Rollin' Man
TTITLE8=If You Love Me Like You Say
TTITLE9="T" For Texas
TTITLE10=Watch Out
EXTD=YEAR: 1995
EXTT0=
EXTT1=
EXTT2=
EXTT3=
EXTT4=
EXTT5=
EXTT6=
EXTT7=
EXTT8=
EXTT9=
EXTT10=
PLAYORDER=
